# xmcd CD database file
#
# Track frame offsets:
#	150
#	20898
#	38710
#	54871
#	68682
#	84629
#	101927
#	121837
#	143028
#	155279
#
# Disc length: 2188 seconds
#
# Revision: 0
# Processed by: cddbd v1.5.2PL0 Copyright (c) Steve Scherf et al.
# Submitted via: CDex 1.51
#
DISCID=7e088a0a
DTITLE=Big Trabant - Little Trabant
DYEAR=2000
DGENRE=Blues
TTITLE0=I shot the sherrif
TTITLE1=de do do do, de da da da
TTITLE2=walk this way
TTITLE3=soul man
TTITLE4=over my sholder
TTITLE5=down south dukin
TTITLE6=so lonely
TTITLE7=just a joke
TTITLE8=down around the corner
TTITLE9=airborne
EXTD=YEAR: 2000
EXTT0=
EXTT1=
EXTT2=
EXTT3=
EXTT4=
EXTT5=
EXTT6=
EXTT7=
EXTT8=
EXTT9=
PLAYORDER=
